<?xml version="1.0" encoding="utf-8"?>
<!-- Generator: Adobe Illustrator 19.0.1, SVG Export Plug-In . SVG Version: 6.00 Build 0)  -->
<svg version="1.1" id="Layer_1" xmlns="http://www.w3.org/2000/svg" xmlns:xlink="http://www.w3.org/1999/xlink" x="0px" y="0px"
	 viewBox="0 0 515.6 184.2" style="enable-background:new 0 0 515.6 184.2;" xml:space="preserve">
<style type="text/css">
	.st0{fill:#008E43;}
</style>
<g>
	<path class="st0" d="M39.6,72.5l-3.3-9H16.2l-3.2,9H0l19.2-50.4h14.6L53,72.5H39.6z M26.2,35.5L20,52.8h12.5L26.2,35.5z"/>
	<path class="st0" d="M91.3,72.5l-22.1-31v31h-12V22.1H70l21.7,30.5V22.1h12.1v50.4H91.3z"/>
	<path class="st0" d="M126.4,72.5V57.4l-18.5-35.3h14.2l10.7,22.2l10.7-22.2h14L139,57.4v15.1H126.4z"/>
	<path class="st0" d="M13.7,116.9v17.6H1.2V84.1h37.5v11.1h-25v10.6h21.2v11.1C34.9,116.9,13.7,116.9,13.7,116.9z"/>
	<path class="st0" d="M78.5,116.5c0,2.8-0.5,5.3-1.5,7.6c-1,2.3-2.4,4.3-4.1,5.9c-1.8,1.7-3.8,2.9-6.2,3.9c-2.4,0.9-5,1.4-7.8,1.4
		s-5.4-0.5-7.8-1.4c-2.4-0.9-4.4-2.2-6.2-3.9c-1.7-1.7-3.1-3.6-4.1-5.9s-1.5-4.8-1.5-7.6c0-2.8,0.5-5.3,1.5-7.6
		c1-2.3,2.3-4.3,4.1-5.9c1.7-1.7,3.8-2.9,6.2-3.9c2.4-0.9,5-1.4,7.8-1.4s5.4,0.5,7.8,1.4s4.4,2.2,6.2,3.9c1.8,1.7,3.1,3.6,4.1,5.9
		C78,111.2,78.5,113.7,78.5,116.5z M58.9,125.1c2.5,0,4.4-0.8,5.8-2.4s2.1-3.7,2.1-6.1s-0.7-4.5-2.2-6.1c-1.4-1.6-3.4-2.4-5.8-2.4
		c-2.4,0-4.4,0.8-5.8,2.4c-1.4,1.6-2.1,3.6-2.1,6.1s0.7,4.5,2.1,6.1C54.6,124.3,56.5,125.1,58.9,125.1z"/>
	<path class="st0" d="M121.3,116.5c0,2.8-0.5,5.3-1.5,7.6c-1,2.3-2.4,4.3-4.1,5.9c-1.8,1.7-3.8,2.9-6.2,3.9c-2.4,0.9-5,1.4-7.8,1.4
		s-5.4-0.5-7.8-1.4s-4.4-2.2-6.2-3.9c-1.7-1.7-3.1-3.6-4.1-5.9s-1.5-4.8-1.5-7.6c0-2.8,0.5-5.3,1.5-7.6c1-2.3,2.3-4.3,4.1-5.9
		c1.7-1.7,3.8-2.9,6.2-3.9c2.4-0.9,5-1.4,7.8-1.4s5.4,0.5,7.8,1.4s4.4,2.2,6.2,3.9c1.8,1.7,3.1,3.6,4.1,5.9
		C120.8,111.2,121.3,113.7,121.3,116.5z M101.8,125.1c2.5,0,4.4-0.8,5.8-2.4s2.1-3.7,2.1-6.1s-0.7-4.5-2.2-6.1
		c-1.4-1.6-3.4-2.4-5.8-2.4s-4.4,0.8-5.8,2.4s-2.1,3.6-2.1,6.1s0.7,4.5,2.1,6.1C97.4,124.3,99.3,125.1,101.8,125.1z"/>
	<path class="st0" d="M155.3,131.5c-1.4,1.2-3,2.1-4.9,2.8s-4.2,1-6.9,1c-4.3,0-7.8-1.1-10.4-3.3c-2.6-2.2-3.9-5.5-3.9-9.7v-14.1
		h-4.8v-9.6h4.8V88.3h11.4v10.2h12v9.6h-12V120c0,1.7,0.4,2.9,1.3,3.7c0.9,0.8,2.1,1.2,3.6,1.2c1.2,0,2.4-0.2,3.4-0.6s2-1,3-1.7
		L155.3,131.5z"/>
	<path class="st0" d="M176.4,134.1c-0.5,0.1-1.1,0.3-1.8,0.4c-0.6,0.1-1.4,0.2-2.2,0.3c-0.9,0.1-1.8,0.1-3,0.1c-3.7,0-6.3-0.9-8-2.7
		c-1.6-1.8-2.4-4.1-2.4-6.9V82.1h11.6v39.5c0,1,0.3,1.9,0.8,2.6s1.5,1.1,2.9,1.1h2.1L176.4,134.1L176.4,134.1z"/>
	<path class="st0" d="M218.4,116.5c0,2.8-0.5,5.3-1.5,7.6c-1,2.3-2.4,4.3-4.1,5.9c-1.8,1.7-3.8,2.9-6.2,3.9c-2.4,0.9-5,1.4-7.8,1.4
		s-5.4-0.5-7.8-1.4c-2.4-0.9-4.4-2.2-6.2-3.9c-1.7-1.7-3.1-3.6-4.1-5.9s-1.5-4.8-1.5-7.6c0-2.8,0.5-5.3,1.5-7.6
		c1-2.3,2.3-4.3,4.1-5.9c1.7-1.7,3.8-2.9,6.2-3.9c2.4-0.9,5-1.4,7.8-1.4s5.4,0.5,7.8,1.4c2.4,0.9,4.4,2.2,6.2,3.9
		c1.8,1.7,3.1,3.6,4.1,5.9C217.9,111.2,218.4,113.7,218.4,116.5z M198.8,125.1c2.5,0,4.4-0.8,5.8-2.4c1.4-1.6,2.1-3.7,2.1-6.1
		s-0.7-4.5-2.2-6.1c-1.4-1.6-3.4-2.4-5.8-2.4c-2.4,0-4.4,0.8-5.8,2.4c-1.4,1.6-2.1,3.6-2.1,6.1s0.7,4.5,2.1,6.1
		C194.5,124.3,196.4,125.1,198.8,125.1z"/>
	<path class="st0" d="M247,134.5v-21c0-1.6-0.5-2.9-1.5-3.8s-2.4-1.3-4.2-1.3c-1.9,0-3.4,0.4-4.3,1.3c-1,0.9-1.4,2.1-1.4,3.8v21H224
		v-36h11.1v3.8c1.1-1.3,2.6-2.4,4.5-3.3s4.1-1.3,6.6-1.3c1.8,0,3.4,0.2,4.9,0.7s2.8,1.2,3.9,2.2c1.1,1,1.9,2.2,2.6,3.7
		c0.6,1.5,0.9,3.3,0.9,5.3v24.9L247,134.5L247,134.5z"/>
	<path class="st0" d="M289.4,130.3c-0.9,1-2.2,1.8-3.9,2.4c-1.7,0.6-3.6,0.9-5.6,0.9c-4.9,0-8.8-1.5-11.6-4.6
		c-2.8-3.1-4.2-7.4-4.2-12.9c0-2.6,0.4-5.1,1.1-7.3c0.7-2.2,1.8-4.1,3.2-5.7c1.4-1.6,3.1-2.9,5.2-3.7c2-0.9,4.4-1.3,6.9-1.3
		c1.9,0,3.7,0.3,5.4,1c1.7,0.6,3.1,1.6,4.1,2.8v-3.4h10.7v32.8c0,6-1.7,10.6-5,13.9c-3.3,3.3-8.3,5-15,5c-3.3,0-6.2-0.5-8.8-1.4
		c-2.6-0.9-4.7-2.1-6.3-3.5l5.3-8.2c1.2,0.9,2.6,1.7,4.3,2.3s3.5,1,5.6,1c3.3,0,5.6-0.7,6.8-2.2c1.2-1.5,1.9-3.5,1.9-6.1v-1.8H289.4
		z M289.4,113c0-1.6-0.7-2.9-2-3.8s-2.9-1.4-4.7-1.4c-2.5,0-4.3,0.8-5.4,2.3s-1.7,3.5-1.7,6c0,2.4,0.6,4.3,1.7,5.7
		c1.1,1.4,2.9,2.1,5.4,2.1c2,0,3.6-0.5,4.8-1.6c1.2-1.1,1.8-2.3,1.8-3.7V113H289.4z"/>
</g>
<g>
	<path class="st0" d="M408.7,54.1c2.6-0.5,5.5-0.8,8.6-0.8c11.4,0,21.4,1.7,29.8,5.1c8.4,3.4,15.3,8,20.8,13.9s9.5,12.7,12.2,20.5
		s4,16.1,4,25c0,9.2-1.6,17.8-4.9,25.9s-8,15.1-14,21.1c-6.1,6-13.5,10.7-22.2,14.2c-8.8,3.5-18.6,5.2-29.5,5.2
		c-11.6,0-21.9-1.7-30.8-5.1c-8.9-3.4-16.4-8.1-22.5-14c-6.1-6-10.7-13-13.9-21.1c-3.2-8.1-4.8-16.8-4.8-26.1c0-6.2,0.4-12,1.2-17.2
		c0.8-5.2,2-10.2,3.5-15c1.6-4.8,3.6-9.4,6-14s5.2-9.4,8.3-14.4c2.1-3.3,4.8-7.3,8.2-12c3.4-4.7,7.1-9.6,11-14.7
		c4-5.1,8.1-10.3,12.2-15.6c4.2-5.3,8.1-10.3,12-15h48.4L408.7,54.1z M413.4,145.1c8.1,0,14.6-2.5,19.5-7.4s7.3-11.6,7.3-19.9
		c0-3.5-0.6-6.8-1.7-10s-2.8-6.1-5.1-8.6c-2.3-2.5-5.1-4.5-8.5-6.1s-7.3-2.3-11.8-2.3c-4.3,0-8.2,0.8-11.7,2.3
		c-3.5,1.6-6.4,3.6-8.7,6.1c-2.3,2.5-4.2,5.4-5.5,8.6s-2,6.5-2,10c0,8.3,2.5,15,7.5,19.9C397.9,142.6,404.7,145.1,413.4,145.1z"/>
</g>
<g>
	<path class="st0" d="M315.1,92V81.5c-4.4-0.4-8.7-1.1-12.9-2.3c-4.2-1.2-8.4-2.9-12.4-5.2l6.4-14.5c4.4,2.5,8.7,4.3,12.8,5.5
		c4.1,1.1,8.1,1.7,11.9,1.7c3.3,0,5.9-0.4,7.7-1.1c1.8-0.8,2.7-2.1,2.7-3.9c0-1.6-1.1-3-3.2-4.1c-2.2-1.2-5.5-2.4-10-3.7
		c-2.5-0.7-5.2-1.6-8.1-2.7s-5.6-2.5-8.1-4.2c-2.5-1.7-4.6-3.9-6.2-6.4s-2.4-5.5-2.4-9.1c0-6,1.9-10.8,5.8-14.4
		c3.9-3.5,9.3-5.6,16.1-6.3V1.7h11.5V11c3.9,0.5,7.7,1.4,11.3,2.6c3.7,1.2,7.2,2.9,10.5,5L340.7,32c-3.2-1.9-6.6-3.5-10.4-4.7
		c-3.7-1.2-7.3-1.8-10.6-1.8c-2.9,0-5,0.4-6.3,1.2c-1.3,0.8-2,2-2,3.4c0,1,0.4,1.9,1.2,2.6c0.8,0.7,1.8,1.4,3.2,2.1
		c1.4,0.6,2.9,1.2,4.7,1.8c1.8,0.6,3.7,1.2,5.8,1.7c2.8,0.9,5.6,1.8,8.4,2.9c2.8,1,5.3,2.4,7.5,4s4,3.6,5.3,6c1.4,2.4,2,5.3,2,8.9
		c0,3.5-0.6,6.6-1.9,9.1c-1.2,2.6-2.9,4.7-5.1,6.3c-2.1,1.7-4.6,2.9-7.4,3.8s-5.7,1.5-8.7,1.9V92H315.1z"/>
</g>
<g>
	<path class="st0" d="M473.7,174.1v-3.9h-3.5v-1.8h3.5v-3.8h1.8v3.8h3.5v1.8h-3.5v3.9H473.7z"/>
	<path class="st0" d="M484.1,174.1v-9.8h-3.9v-2.8h10.9v2.8h-3.8v9.8H484.1z"/>
	<path class="st0" d="M499.9,174.1l-0.8-2.2h-5l-0.8,2.2H490l4.8-12.6h3.7l4.8,12.6H499.9z M496.5,164.9l-1.5,4.3h3.1L496.5,164.9z"
		/>
	<path class="st0" d="M511.9,174.1l-2.6-4.5l-2.6,4.5h-3.5l4.1-6.6l-3.9-6h3.6l2.4,4l2.4-4h3.6l-3.8,6.1l4.1,6.5H511.9z"/>
</g>
</svg>
