<?xml version="1.0" encoding="utf-8"?>
<!-- Generator: Adobe Illustrator 19.0.1, SVG Export Plug-In . SVG Version: 6.00 Build 0)  -->
<svg version="1.1" id="Layer_1" xmlns="http://www.w3.org/2000/svg" xmlns:xlink="http://www.w3.org/1999/xlink" x="0px" y="0px"
	 viewBox="0 0 672.8 305.8" style="enable-background:new 0 0 672.8 305.8;" xml:space="preserve">
<style type="text/css">
	.st0{fill:#FCB912;}
	.st1{fill:#008D43;}
	.st2{fill:#F05C22;}
	.st3{fill:#FFC113;}
	.st4{fill:#84C341;}
	.st5{fill:#FFFFFF;}
	.st6{fill:#EB008B;}
	.st7{fill:none;}
</style>
<g>
	<path class="st0" d="M672.8,184c0,6-5.1,10.9-11.2,10.9H328c-6.2,0-11.2-4.9-11.2-10.9c0-6,5.1-10.9,11.2-10.9h333.6
		C667.8,173.1,672.8,178,672.8,184"/>
	<polygon class="st1" points="0,1.6 0,86.6 21.1,86.6 21.1,56.9 47.7,56.9 47.7,38.2 21.1,38.2 21.1,20.3 63.3,20.3 63.3,1.6 	"/>
	<path class="st1" d="M110.7,88.2c-26,0-45.3-18.1-45.3-44.2c0-26.2,19.3-44,45.3-44c26,0,45.3,17.7,45.3,44
		C156,70.1,136.7,88.2,110.7,88.2 M110.6,69.1c15.1,0,23.1-10.6,23.1-25.1c0-14.7-8.9-24.9-23.1-24.9c-14,0-23.3,10.2-23.3,24.9
		C87.2,58.6,95.7,69.1,110.6,69.1"/>
	<path class="st1" d="M208.5,88.2c-26,0-45.3-18.1-45.3-44.2c0-26.2,19.3-44,45.3-44s45.3,17.7,45.3,44
		C253.8,70.1,234.5,88.2,208.5,88.2 M208.3,69.1c15.1,0,23.1-10.6,23.1-25.1c0-14.7-8.9-24.9-23.1-24.9c-14,0-23.3,10.2-23.3,24.9
		C185,58.6,193.5,69.1,208.3,69.1"/>
	<polygon class="st1" points="278.7,86.6 278.7,20.5 252.5,20.5 252.5,1.6 326.2,1.6 326.2,20.5 300.1,20.5 300.1,86.6 	"/>
	<polygon class="st1" points="335,86.6 335,1.6 356.4,1.6 356.4,67.7 395.2,67.7 395.2,86.6 	"/>
	<path class="st1" d="M443.1,88.2c-26,0-45.3-18.1-45.3-44.2c0-26.2,19.3-44,45.3-44c26,0,45.3,17.7,45.3,44
		C488.4,70.1,469.1,88.2,443.1,88.2 M443,69.1c15.1,0,23.1-10.6,23.1-25.1c0-14.7-8.9-24.9-23.1-24.9c-14,0-23.3,10.2-23.3,24.9
		C419.7,58.6,428.2,69.1,443,69.1"/>
	<polygon class="st1" points="514.8,34.3 514.8,86.6 494.5,86.6 494.5,1.6 516.1,1.6 552.7,53 552.7,1.6 573.1,1.6 573.1,86.6 
		552.1,86.6 	"/>
	<path class="st1" d="M643,55h-17.4V37.5h38.5v41.9c-11.1,5.7-22.1,8.7-36,8.7c-29.9,0-46.5-17-46.5-44.8
		c0-24.7,18.1-43.4,45.4-43.4c17.6,0,26.9,4.7,36.4,12.4l-11.4,16c-7.9-6-14.8-9.5-25-9.5c-15.6,0-23.9,10.1-23.9,24.4
		c0.1,16.3,9,26.1,25.4,26.1c5.8,0,10.1-0.9,14.5-2.3V55z"/>
	<polygon class="st2" points="0,193.9 0,108.8 63.3,108.8 63.3,127.5 21.1,127.5 21.1,145.4 47.7,145.4 47.7,164.1 21.1,164.1 
		21.1,193.9 	"/>
	<polygon class="st2" points="72.5,193.9 72.5,108.8 136.8,108.8 136.8,126.8 93.7,126.8 93.7,141.2 117.7,141.2 117.7,159.3 
		93.7,159.3 93.7,175.9 138.7,175.9 138.7,193.9 	"/>
	<path class="st2" d="M209.1,133.4c-7.7-4.9-17.5-8-25.6-8c-7.2,0-10.6,2.3-10.6,6.1c0,5.3,7.8,7.5,17.9,10.7
		c13.8,4.3,29,9.4,29,26.9c0,20.7-18.2,26.5-35.8,26.5c-12.6,0-25.3-2.7-36.9-9.5l7.7-17.4c11.1,6.3,20.7,8.7,30.1,8.7
		c8,0,12.9-1.8,12.9-6.6c0-4.4-4.4-6.7-16.2-10.2c-12.6-3.6-30.5-9.5-30.5-28.1c0-16.2,12.6-25.3,32.2-25.3
		c12.3,0,24.8,3.2,34.9,9.8L209.1,133.4z"/>
	<polygon class="st2" points="252.2,193.9 252.2,127.8 225.9,127.8 225.9,108.8 299.7,108.8 299.7,127.8 273.5,127.8 273.5,193.9 	
		"/>
	<path class="st3" d="M417.6,108h-0.5c0.1,0,0.2,0,0.3-0.1C417.5,108,417.5,108,417.6,108"/>
	<rect x="324.3" y="148.2" class="st0" width="340.3" height="15.3"/>
	<rect x="324.3" y="163.5" class="st4" width="340.3" height="6.4"/>
	<rect x="324.3" y="142.7" class="st1" width="340.3" height="6.4"/>
	<rect x="332.5" y="163.5" class="st2" width="60.1" height="6.4"/>
	<polygon class="st5" points="324.3,131.8 400.8,131.8 362.5,170.1 	"/>
	<path class="st6" d="M390.2,160.6c-15.2,0-27.5-12.3-27.5-27.5h2.6c0,13.7,11.1,24.8,24.8,24.8V160.6z"/>
	<rect x="420.5" y="163.5" class="st2" width="60.1" height="6.4"/>
	<polygon class="st5" points="412.3,131.8 488.8,131.8 450.6,170.1 	"/>
	<path class="st6" d="M478.2,160.6c-15.2,0-27.5-12.3-27.5-27.5h2.6c0,13.7,11.1,24.8,24.8,24.8V160.6z"/>
	<rect x="508.5" y="163.5" class="st2" width="60.1" height="6.4"/>
	<polygon class="st5" points="500.3,131.8 576.9,131.8 538.6,170.1 	"/>
	<path class="st6" d="M566.2,160.6c-15.2,0-27.5-12.3-27.5-27.5h2.6c0,13.7,11.1,24.8,24.8,24.8V160.6z"/>
	<rect x="596.5" y="163.5" class="st2" width="60.1" height="6.4"/>
	<polygon class="st5" points="588.3,131.8 664.9,131.8 626.6,170.1 	"/>
	<path class="st6" d="M654.2,160.6c-15.2,0-27.5-12.3-27.5-27.5h2.6c0,13.7,11.1,24.8,24.8,24.8V160.6z"/>
	<path class="st0" d="M607.8,105.1c-14.2,0-37,3.9-37,3.9c-8.9-2.2-20.1-4.1-32.9-5.5c-12.7-1.4-27-2.2-42.1-2.2h-2
		c-15.1,0-29.4,0.8-42.1,2.2c-12.7,1.4-23.9,3.3-32.9,5.5c0,0-22.7-3.9-37-3.9c-23.8,0-65,1.5-65,34.6h356.1
		C672.8,106.7,631.6,105.1,607.8,105.1 M419.1,109.1C419.1,109.1,419.1,109.1,419.1,109.1c0.1,0,0.1,0,0.2,0H419.1z M570.6,109.1
		C570.7,109.1,570.7,109.1,570.6,109.1c0.1,0,0.1,0,0.2,0H570.6z"/>
	<path class="st3" d="M419.2,109.1h-0.2C419.1,109.1,419.1,109.1,419.2,109.1C419.2,109.1,419.2,109.1,419.2,109.1"/>
	<path class="st3" d="M419.2,109.1h-0.2C419.1,109.1,419.1,109.1,419.2,109.1C419.2,109.1,419.2,109.1,419.2,109.1"/>
	<path class="st3" d="M419.2,109.1h-0.2C419.1,109.1,419.1,109.1,419.2,109.1C419.2,109.1,419.2,109.1,419.2,109.1"/>
	<path class="st3" d="M570.4,108h-0.2C570.3,108,570.4,108,570.4,108C570.4,108,570.4,108,570.4,108"/>
	<path class="st3" d="M570.4,108h-0.2C570.3,108,570.4,108,570.4,108C570.4,108,570.4,108,570.4,108"/>
	<path class="st3" d="M570.4,108h-0.2C570.3,108,570.4,108,570.4,108C570.4,108,570.4,108,570.4,108"/>
	<polygon class="st2" points="304.6,114.3 304.6,110.1 302.9,110.1 302.9,108.8 307.7,108.8 307.7,110.1 306,110.1 306,114.3 	"/>
	<polygon class="st2" points="312.9,114.3 312.9,111.2 311.8,113.3 310.7,113.3 309.6,111.2 309.6,114.3 308.2,114.3 308.2,108.8 
		309.7,108.8 311.2,111.8 312.8,108.8 314.2,108.8 314.2,114.3 	"/>
	<rect x="0" class="st7" width="672.8" height="195.5"/>
	<path class="st1" d="M123.4,225.7c0,2.6-0.9,4.7-2.6,6.4c-1.7,1.7-3.8,2.5-6.3,2.5c-2.6,0-4.7-0.8-6.3-2.5
		c-1.7-1.7-2.5-3.8-2.5-6.4c0-2.4,0.8-4.5,2.5-6.3c1.7-1.7,3.8-2.6,6.3-2.6c2.5,0,4.6,0.9,6.3,2.6
		C122.6,221.2,123.4,223.3,123.4,225.7z M107.1,286.6v-47h15.1v47H107.1z"/>
	<path class="st1" d="M164.5,255.3c-2.2-1.3-4.5-2.4-7.1-3.3c-2.5-0.9-5-1.3-7.3-1.3c-2.7,0-4,0.8-4,2.4c0,0.9,0.6,1.7,1.8,2.3
		c1.2,0.6,2.8,1.1,4.6,1.6c1.9,0.5,3.9,1.1,6,1.8c2.2,0.7,4.2,1.6,6,2.7c1.9,1.1,3.4,2.6,4.6,4.3c1.2,1.7,1.8,3.9,1.8,6.5
		c0,3-0.6,5.5-1.8,7.5c-1.2,2-2.8,3.5-4.7,4.7c-1.9,1.2-4.2,2-6.6,2.4c-2.5,0.5-5,0.7-7.5,0.7c-3.7,0-7.4-0.4-11.2-1.2
		c-3.8-0.8-7.3-2.3-10.7-4.5l5.1-11.3c3,1.8,5.9,3.1,8.7,3.9c2.8,0.8,5.5,1.2,8.1,1.2c3.6,0,5.4-0.9,5.4-2.6c0-0.9-0.6-1.6-1.8-2.2
		c-1.2-0.6-2.8-1.1-4.6-1.6c-1.8-0.5-3.8-1.1-6-1.8c-2.1-0.7-4.1-1.6-6-2.8c-1.8-1.2-3.4-2.7-4.6-4.5c-1.2-1.8-1.8-4.1-1.8-7
		c0-4.5,1.7-8.1,5.1-10.6c3.4-2.6,8-3.9,13.9-3.9c3.7,0,7.2,0.4,10.5,1.3c3.3,0.9,6.5,2.3,9.4,4.1L164.5,255.3z"/>
	<path class="st1" d="M230.7,239.6h15.1v30.6c0,2.5-0.5,4.8-1.5,6.9c-1,2.1-2.4,3.9-4.3,5.5c-1.9,1.6-4.3,2.8-7.1,3.7
		c-2.8,0.9-6,1.3-9.7,1.3s-6.9-0.4-9.7-1.3c-2.8-0.9-5.1-2.1-7.1-3.7c-1.9-1.6-3.4-3.4-4.3-5.5c-1-2.1-1.5-4.4-1.5-6.9v-30.6h15.1
		v28.5c0,1.6,0.6,3,1.7,4.2c1.2,1.2,3.1,1.7,5.7,1.7c2.6,0,4.4-0.6,5.6-1.7c1.2-1.2,1.7-2.6,1.7-4.2V239.6z"/>
	<path class="st1" d="M255,305.8v-66.2h14.8l0,4.5c1.4-1.4,3.4-2.7,5.8-3.9s5.1-1.7,8-1.7c3.2,0,6.1,0.6,8.6,1.7
		c2.6,1.1,4.8,2.7,6.6,4.8c1.8,2.1,3.2,4.6,4.2,7.6c1,3,1.5,6.3,1.5,10c0,3.4-0.5,6.7-1.6,9.6c-1.1,3-2.5,5.6-4.5,7.8
		c-1.9,2.2-4.2,4-6.9,5.2s-5.8,1.9-9.1,1.9c-2.8,0-5.2-0.4-7.1-1.2c-1.9-0.8-3.6-2-5-3.5v23.2H255z M270.1,267.9
		c0,0.6,0.2,1.3,0.5,2.1c0.3,0.8,0.9,1.4,1.6,2.1c0.7,0.6,1.6,1.2,2.8,1.6c1.1,0.4,2.4,0.7,3.9,0.7c3,0,5.4-1,7.2-2.9
		c1.8-1.9,2.7-4.7,2.7-8.5c0-3.4-0.8-6.1-2.4-8.1c-1.6-2-4.1-3.1-7.3-3.1c-2.7,0-4.8,0.7-6.5,2.1c-1.7,1.4-2.5,2.9-2.5,4.4V267.9z"
		/>
	<path class="st1" d="M360.4,263.1c0,3.6-0.6,7-1.9,10c-1.3,3-3.1,5.6-5.4,7.8s-5,3.8-8.1,5s-6.5,1.8-10.1,1.8
		c-3.6,0-7-0.6-10.1-1.8s-5.8-2.9-8.1-5c-2.3-2.2-4-4.7-5.3-7.8s-1.9-6.3-1.9-10c0-3.6,0.6-7,1.9-10s3.1-5.6,5.3-7.8
		c2.3-2.2,4.9-3.8,8.1-5c3.1-1.2,6.5-1.8,10.1-1.8c3.6,0,7,0.6,10.1,1.8c3.1,1.2,5.8,2.9,8.1,5s4.1,4.7,5.4,7.8
		C359.7,256.2,360.4,259.5,360.4,263.1z M334.9,274.3c3.2,0,5.8-1.1,7.6-3.2c1.8-2.1,2.8-4.8,2.8-8s-0.9-5.8-2.8-7.9
		c-1.9-2.1-4.4-3.1-7.6-3.1c-3.2,0-5.7,1-7.5,3.1c-1.8,2.1-2.8,4.7-2.8,7.9s0.9,5.9,2.8,8C329.2,273.3,331.7,274.3,334.9,274.3z"/>
	<path class="st1" d="M397.8,286.6v-27.4c0-2.1-0.6-3.8-1.9-4.9c-1.3-1.2-3.1-1.7-5.5-1.7c-2.5,0-4.4,0.6-5.6,1.7
		c-1.3,1.2-1.9,2.8-1.9,4.9v27.4h-15.1v-47h14.5v5c1.4-1.7,3.4-3.1,5.9-4.3c2.5-1.2,5.4-1.7,8.7-1.7c2.3,0,4.5,0.3,6.5,0.9
		c2,0.6,3.7,1.5,5.1,2.8c1.4,1.3,2.5,2.9,3.3,4.8c0.8,1.9,1.2,4.3,1.2,7v32.5H397.8z"/>
	<path class="st1" d="M474.6,239.6h15.1v30.6c0,2.5-0.5,4.8-1.5,6.9c-1,2.1-2.4,3.9-4.3,5.5c-1.9,1.6-4.3,2.8-7.1,3.7
		c-2.8,0.9-6,1.3-9.7,1.3s-6.9-0.4-9.7-1.3c-2.8-0.9-5.1-2.1-7.1-3.7c-1.9-1.6-3.4-3.4-4.3-5.5c-1-2.1-1.5-4.4-1.5-6.9v-30.6h15.1
		v28.5c0,1.6,0.6,3,1.7,4.2c1.2,1.2,3.1,1.7,5.7,1.7c2.6,0,4.4-0.6,5.6-1.7c1.2-1.2,1.7-2.6,1.7-4.2V239.6z"/>
	<path class="st1" d="M531.5,255.3c-2.2-1.3-4.5-2.4-7-3.3c-2.5-0.9-5-1.3-7.3-1.3c-2.7,0-4,0.8-4,2.4c0,0.9,0.6,1.7,1.8,2.3
		s2.8,1.1,4.6,1.6c1.9,0.5,3.9,1.1,6,1.8c2.2,0.7,4.2,1.6,6,2.7s3.4,2.6,4.6,4.3c1.2,1.7,1.8,3.9,1.8,6.5c0,3-0.6,5.5-1.8,7.5
		c-1.2,2-2.8,3.5-4.7,4.7c-1.9,1.2-4.2,2-6.6,2.4c-2.5,0.5-5,0.7-7.5,0.7c-3.7,0-7.4-0.4-11.2-1.2c-3.8-0.8-7.3-2.3-10.7-4.5
		l5.1-11.3c3,1.8,5.9,3.1,8.7,3.9c2.8,0.8,5.5,1.2,8.1,1.2c3.6,0,5.4-0.9,5.4-2.6c0-0.9-0.6-1.6-1.8-2.2c-1.2-0.6-2.8-1.1-4.6-1.6
		c-1.8-0.5-3.8-1.1-6-1.8c-2.1-0.7-4.1-1.6-6-2.8c-1.8-1.2-3.4-2.7-4.6-4.5c-1.2-1.8-1.8-4.1-1.8-7c0-4.5,1.7-8.1,5.1-10.6
		c3.4-2.6,8-3.9,13.9-3.9c3.7,0,7.2,0.4,10.5,1.3c3.3,0.9,6.5,2.3,9.4,4.1L531.5,255.3z"/>
	<path class="st1" d="M564.4,278.7c0,2.6-0.9,4.7-2.6,6.4c-1.7,1.7-3.8,2.5-6.3,2.5c-2.6,0-4.7-0.8-6.3-2.5
		c-1.7-1.7-2.5-3.8-2.5-6.4c0-2.4,0.8-4.5,2.5-6.3c1.7-1.7,3.8-2.6,6.3-2.6c2.5,0,4.6,0.9,6.3,2.6
		C563.5,274.2,564.4,276.3,564.4,278.7z M549,262.2l-2-41.4h16.8l-1.9,41.4H549z"/>
</g>
</svg>
